<?xml version="1.0" encoding="UTF-8"?><svg xmlns="http://www.w3.org/2000/svg" xmlns:xlink="http://www.w3.org/1999/xlink" version="1.1" id="Layer_1" x="0px" y="0px" viewBox="0 0 24 24" xml:space="preserve"><g fill="none" stroke="#303C42" stroke-linecap="round" stroke-linejoin="round" stroke-miterlimit="10"><path d="M12 3.5s-1.5-1-3.5-1-6 1-6 1v16s4-1 6-1 3.5 1 3.5 1v-16z"/><path d="M12 3.5s1.5-1 3.5-1 6 1 6 1v16s-4-1-6-1-3.5 1-3.5 1v-16z"/><path d="M2.5 4.743c-1.223.183-2 .454-2 .757v16s5.414-.44 9.092-.831a1.997 1.997 0 0 1 1.566.517s.234.204.342.246c.117.045.308.068.5.068s.384-.023.5-.068c.108-.042.342-.246.342-.246.425-.39.992-.578 1.566-.517 3.678.39 9.092.831 9.092.831v-16c0-.303-.777-.574-2-.757"/></g><metadata><rdf:RDF xmlns:rdf="http://www.w3.org/1999/02/22-rdf-syntax-ns#" xmlns:rdfs="http://www.w3.org/2000/01/rdf-schema#" xmlns:dc="http://purl.org/dc/elements/1.1/"><rdf:Description about="https://iconscout.com/legal#licenses" dc:title="book,education,knowledges,school,studying" dc:description="book,education,knowledges,school,studying" dc:publisher="Iconscout" dc:date="2017-08-16" dc:format="image/svg+xml" dc:language="en"><dc:creator><rdf:Bag><rdf:li>Those Icons</rdf:li></rdf:Bag></dc:creator></rdf:Description></rdf:RDF></metadata></svg>